<svg id="레이어_1" data-name="레이어 1" xmlns="http://www.w3.org/2000/svg" viewBox="0 0 500 188.84"><defs><style>.cls-1{fill:#fff;}</style></defs><path class="cls-1" d="M115.46,44.43V85.67h-9.54V68.76H87.18V85.67H77.63V44.43h9.55V60.69h18.74V44.43Z"/><path class="cls-1" d="M122,81.61l3.24-7.19a24.29,24.29,0,0,0,13.61,4.3c5.66,0,8-1.88,8-4.42,0-7.72-24-2.42-24-17.74,0-7,5.65-12.84,17.38-12.84,5.18,0,10.49,1.24,14.32,3.65l-3,7.25a23.3,23.3,0,0,0-11.43-3.24c-5.66,0-7.84,2.12-7.84,4.71,0,7.61,24,2.36,24,17.5,0,6.9-5.71,12.79-17.49,12.79C132.24,86.38,125.65,84.44,122,81.61Z"/><path class="cls-1" d="M179.49,44.43h18.73c13.5,0,22.75,8.13,22.75,20.62s-9.25,20.62-22.75,20.62H179.49Zm18.26,33.41c8.19,0,13.56-4.89,13.56-12.79s-5.37-12.79-13.56-12.79H189V77.84Z"/><path class="cls-1" d="M260.08,78v7.66H228.15V44.43h31.17v7.66H237.63V61h19.16v7.43H237.63V78Z"/><path class="cls-1" d="M264.43,81.61l3.24-7.19a24.29,24.29,0,0,0,13.61,4.3c5.66,0,8-1.88,8-4.42,0-7.72-24-2.42-24-17.74,0-7,5.65-12.84,17.38-12.84,5.19,0,10.49,1.24,14.32,3.65L294,54.62a23.27,23.27,0,0,0-11.43-3.24c-5.66,0-7.84,2.12-7.84,4.71,0,7.61,24,2.36,24,17.5,0,6.9-5.71,12.79-17.49,12.79C274.69,86.38,268.09,84.44,264.43,81.61Z"/><path class="cls-1" d="M305.26,44.43h9.54V85.67h-9.54Z"/><path class="cls-1" d="M352.45,64.4h8.72V81.14a28.49,28.49,0,0,1-16.67,5.24c-13,0-22.51-8.9-22.51-21.33s9.54-21.33,22.68-21.33c7.25,0,13.26,2.47,17.27,7.13l-6.13,5.66a13.92,13.92,0,0,0-10.66-4.66c-8,0-13.5,5.36-13.5,13.2s5.48,13.2,13.38,13.2a15.09,15.09,0,0,0,7.42-1.77Z"/><path class="cls-1" d="M407.83,44.43V85.67H400l-20.56-25v25H370V44.43h7.9l20.5,25v-25Z"/></svg>